<?xml version="1.0" encoding="UTF-8"?>
<svg id="Layer_1" data-name="Layer 1" xmlns="http://www.w3.org/2000/svg" xmlns:xlink="http://www.w3.org/1999/xlink" viewBox="0 0 830.54 830.54">
  <defs>
    <style>
      .cls-1 {
        fill: url(#linear-gradient);
      }

      .cls-1, .cls-2 {
        stroke-width: 0px;
      }

      .cls-2 {
        fill: url(#linear-gradient-2);
      }
    </style>
    <linearGradient id="linear-gradient" x1="121.63" y1="354.45" x2="830.54" y2="354.45" gradientUnits="userSpaceOnUse">
      <stop offset="0" stop-color="#00bd6b"/>
      <stop offset="1" stop-color="#4fffa0"/>
    </linearGradient>
    <linearGradient id="linear-gradient-2" x1="0" y1="622.9" x2="830.54" y2="622.9" gradientTransform="translate(415.27 -172.01) rotate(45)" gradientUnits="userSpaceOnUse">
      <stop offset="0" stop-color="#00d5ff"/>
      <stop offset="1" stop-color="blue"/>
    </linearGradient>
  </defs>
  <path class="cls-1" d="M708.91,708.91c162.17-162.17,162.17-425.11,0-587.28-162.17-162.17-425.11-162.17-587.28,0l211.39,211.39c45.42-45.42,119.07-45.42,164.49,0s45.42,119.07,0,164.49l211.39,211.39Z"/>
  <path class="cls-2" d="M121.63,121.63c-162.17,162.17-162.17,425.11,0,587.28,162.17,162.17,425.11,162.17,587.28,0l-211.39-211.39c-45.42,45.42-119.07,45.42-164.49,0-45.42-45.42-45.42-119.07,0-164.49L121.63,121.63Z"/>
</svg>